<?xml version="1.0" encoding="utf-8"?>
<!-- Generator: Adobe Illustrator 22.0.1, SVG Export Plug-In . SVG Version: 6.00 Build 0)  -->
<svg version="1.1" id="Layer_1" xmlns="http://www.w3.org/2000/svg" xmlns:xlink="http://www.w3.org/1999/xlink" x="0px" y="0px"
	 viewBox="0 0 226.8 226.8" style="enable-background:new 0 0 226.8 226.8;" xml:space="preserve">
<style type="text/css">
	.st0{fill:#D6CB98;}
	.st1{fill:#33B44A;}
	.st2{fill:#231F20;stroke:#231F20;stroke-width:2.817464e-02;}
	.st3{fill:none;}
</style>
<circle class="st0" cx="113.4" cy="113.4" r="113.4"/>
<path class="st1" d="M70.4,57.9c0,0,29.7,20.8,53.6-8.4c8.6,32.5,26.8,14.1,26.8,14.1s2.1,32.4,29.6,20.8
	c-3.4,26.3,25.4,27.8,25.4,27.8s-33.2,2.6-33.8,30.8c-19.5-7.6-23.4,7.4-24.1,20.4c-16.7-11.6-32-6.2-36.1,12.3
	c-12-22.1-30.3-26.6-42-14.1c0,0-1.7-31.1-22.5-28.3c10.6-14.2,8.1-27.5-1-33.6c-5.3-3.9-30.1-8.6-30.1-8.6c0.6-2.2,1.6-6.2,2.7-8
	c0,0,12.2,6.9,23.7,8.8C67.9,96.2,70.4,57.9,70.4,57.9z"/>
<g>
	<g>
		<path d="M78.7,89.2c3.6-2.9,8.1-5,12.7-4.8c3.5-0.1,7,1.7,9.2,4.5c1.1,1.6,2.3,3.6,1.7,5.7c-1.5,1.4-3.9,0.1-4.6-1.6
			c-0.8-1.9-2.4-3.6-4.3-4.5c-2.7-1.1-5.6-0.8-8.4,0c-2,0.6-3.8,1.7-5.5,2.9c-1.3,1.1-2.4,2.6-3.9,3.6c-0.4,0.3-0.9,0.3-1.3,0.3
			C75.4,93,76.7,90.8,78.7,89.2z"/>
		<path d="M123,96c3.3-4.8,9-8.2,15-8c2.2,0.2,4.6,0.2,6.6,1.2c2.1,1,3.9,2.6,5.4,4.3c1.1,1.5,1.2,3.4,1.1,5.1
			c-1,2.1-4.2,0.8-4.6-1.1c-1.3-4.4-6-7.6-10.6-7.1c-1.8,0.3-3.5,0.7-5.1,1.5c-1.9,1-3.9,2-5.4,3.6c-0.7,0.8-1.5,1.6-2.6,1.7
			C122.8,96.9,122.7,96.4,123,96z"/>
		<path d="M115,90c0.3,0,0.6,0,0.9,0c0.5,1.8,0.5,3.7,0.8,5.6c0.8,5.5,3,10.7,5.7,15.6c0.5,0.8,0.6,1.6,0.4,2.5
			c-0.8,0-1.8,0.2-2.5-0.4c-2-1.4-2.9-3.7-3.7-5.9c-1.7-4.8-2.4-10-2.2-15.1C114.3,91.5,114.6,90.7,115,90z"/>
		<path d="M85.8,138c0,0,7.1-8.8,19.6-13.9c4.8-1.9,10.2-2.9,15.3-2c7.6,1.2,15.4,4.1,20.3,10.2c1.3,1.7,2.7,3.6,3.1,5.8
			c-0.6,0-1.1-0.1-1.4-0.7c-1.4-2.4-3.5-4.3-5.8-5.9c-5.4-3.4-11.8-4.9-18.2-5.3c-2.7-0.4-5.4,0-8.1,0.3c-3.9,0.6-7.2,1.8-10.8,3.4
			c-5.2,2.6-10.7,5.9-14.5,10.3c-0.9-0.7-0.6-0.4-0.9-0.7L85.8,138z"/>
	</g>
	<g>
		<path class="st2" d="M78.7,89.2c3.6-2.9,8.1-5,12.7-4.8c3.5-0.1,7,1.7,9.2,4.5c1.1,1.6,2.3,3.6,1.7,5.7c-1.5,1.4-3.9,0.1-4.6-1.6
			c-0.8-1.9-2.4-3.6-4.3-4.5c-2.7-1.1-5.6-0.8-8.4,0c-2,0.6-3.8,1.7-5.5,2.9c-1.3,1.1-2.4,2.6-3.9,3.6c-0.4,0.3-0.9,0.3-1.3,0.3
			C75.4,93,76.7,90.8,78.7,89.2z"/>
		<path class="st2" d="M123,96c3.3-4.8,9-8.2,15-8c2.2,0.2,4.6,0.2,6.6,1.2c2.1,1,3.9,2.6,5.4,4.3c1.1,1.5,1.2,3.4,1.1,5.1
			c-1,2.1-4.2,0.8-4.6-1.1c-1.3-4.4-6-7.6-10.6-7.1c-1.8,0.3-3.5,0.7-5.1,1.5c-1.9,1-3.9,2-5.4,3.6c-0.7,0.8-1.5,1.6-2.6,1.7
			C122.8,96.9,122.7,96.4,123,96z"/>
		<path class="st2" d="M115,90c0.3,0,0.6,0,0.9,0c0.5,1.8,0.5,3.7,0.8,5.6c0.8,5.5,3,10.7,5.7,15.6c0.5,0.8,0.6,1.6,0.4,2.5
			c-0.8,0-1.8,0.2-2.5-0.4c-2-1.4-2.9-3.7-3.7-5.9c-1.7-4.8-2.4-10-2.2-15.1C114.3,91.5,114.6,90.7,115,90z"/>
		<path class="st2" d="M85.8,138c0,0,7.1-8.8,19.6-13.9c4.8-1.9,10.2-2.9,15.3-2c7.6,1.2,15.4,4.1,20.3,10.2
			c1.3,1.7,2.7,3.6,3.1,5.8c-0.6,0-1.1-0.1-1.4-0.7c-1.4-2.4-3.5-4.3-5.8-5.9c-5.4-3.4-11.8-4.9-18.2-5.3c-2.7-0.4-5.4,0-8.1,0.3
			c-3.9,0.6-7.2,1.8-10.8,3.4c-5.2,2.6-10.7,5.9-14.5,10.3c-0.9-0.7-0.6-0.4-0.9-0.7L85.8,138z"/>
	</g>
</g>
<path id="SVGID_x5F_1_x5F_" class="st3" d="M194.5,81.2c17.2,44.8-5.1,95-49.9,112.3s-95-5.1-112.3-49.9s5.1-95,49.9-112.3
	S177.3,36.4,194.5,81.2z"/>
<text><textPath  xlink:href="#SVGID_x5F_1_x5F_" startOffset="12797.9932%">
<tspan  style="fill:#1E1E1E;stroke:#000000;stroke-width:1.2;stroke-linecap:round;stroke-linejoin:round;stroke-miterlimit:10; font-family:'MosbekkeSans-Regular'; font-size:30px;">NeE beDankt</tspan></textPath>
</text>
<path id="SVGID_x5F_2_x5F_" class="st3" d="M198.2,131.3c-10.5,46.8-56.9,76.3-103.7,65.9c-46.8-10.5-76.3-56.9-65.9-103.7
	s56.9-76.3,103.7-65.9S208.6,84.5,198.2,131.3z"/>
<text><textPath  xlink:href="#SVGID_x5F_2_x5F_" startOffset="80.5339%">
<tspan  style="fill:#1E1E1E;stroke:#000000;stroke-width:1.2;stroke-linecap:round;stroke-linejoin:round;stroke-miterlimit:10; font-family:'MosbekkeSans-Regular'; font-size:30px;">HulSt?</tspan></textPath>
</text>
</svg>
